<svg xmlns="http://www.w3.org/2000/svg" version="1.1" xmlns:xlink="http://www.w3.org/1999/xlink" viewBox="0 0 200 200"><rect width="200" height="200" fill="url('#gradient')"></rect><defs><linearGradient id="gradient" gradientTransform="rotate(45 0.5 0.5)"><stop offset="0%" stop-color="#e6dbcc"></stop><stop offset="100%" stop-color="#e6dbcc"></stop></linearGradient></defs><g><g fill="#000000" transform="matrix(2.2831661092530657,0,0,2.2831661092530657,10.066440870098717,112.25039559622672)" stroke="#000000" stroke-width="0.2"><path d="M9.98 0L9.15-2.66L4.45-2.66L3.63 0L-0.03 0L5.19-14.22L8.41-14.22L13.66 0L9.98 0ZM6.80-10.23L5.27-5.30L8.33-5.30L6.80-10.23ZM18.02-15L18.02 0L14.72 0L14.72-15L18.02-15ZM33.99-8.57L33.99-6.03L28.60-6.03L28.60-2.64L34.97-2.64L34.97 0L25.18 0L25.18-14.22L34.99-14.22L34.99-11.57L28.60-11.57L28.60-8.57L33.99-8.57ZM35.64-5.24L35.64-5.36Q35.64-6.96 36.17-8.19Q36.70-9.42 37.69-10.09Q38.67-10.76 39.98-10.76L39.98-10.76Q41.63-10.76 42.56-9.65L42.56-9.65L42.68-10.57L45.66-10.57L45.66-0.40Q45.66 1.00 45.01 2.03Q44.37 3.06 43.13 3.61Q41.90 4.16 40.28 4.16L40.28 4.16Q39.12 4.16 38.03 3.72Q36.94 3.28 36.37 2.58L36.37 2.58L37.74 0.64Q38.66 1.73 40.17 1.73L40.17 1.73Q42.35 1.73 42.35-0.52L42.35-0.52L42.35-0.85Q41.41 0.20 39.96 0.20L39.96 0.20Q38.03 0.20 36.84-1.28Q35.64-2.76 35.64-5.24L35.64-5.24ZM38.95-5.16L38.95-5.16Q38.95-3.86 39.43-3.10Q39.92-2.34 40.80-2.34L40.80-2.34Q41.87-2.34 42.35-3.06L42.35-3.06L42.35-7.50Q41.88-8.22 40.82-8.22L40.82-8.22Q39.94-8.22 39.44-7.44Q38.95-6.65 38.95-5.16ZM56.78 0L53.49 0Q53.31-0.32 53.17-0.95L53.17-0.95Q52.27 0.20 50.63 0.20L50.63 0.20Q49.14 0.20 48.10-0.71Q47.05-1.61 47.05-2.98L47.05-2.98Q47.05-4.70 48.32-5.58Q49.59-6.46 52.01-6.46L52.01-6.46L53.03-6.46L53.03-7.01Q53.03-8.47 51.77-8.47L51.77-8.47Q50.60-8.47 50.60-7.31L50.60-7.31L47.30-7.31Q47.30-8.85 48.61-9.80Q49.91-10.76 51.93-10.76Q53.96-10.76 55.13-9.78Q56.30-8.79 56.33-7.07L56.33-7.07L56.33-2.39Q56.35-0.94 56.78-0.17L56.78-0.17L56.78 0ZM51.43-2.15L51.43-2.15Q52.04-2.15 52.45-2.41Q52.85-2.68 53.03-3.01L53.03-3.01L53.03-4.70L52.07-4.70Q50.35-4.70 50.35-3.15L50.35-3.15Q50.35-2.71 50.65-2.43Q50.96-2.15 51.43-2.15ZM67.96-5.36L67.96-5.20Q67.96-2.60 66.88-1.20Q65.81 0.20 63.86 0.20L63.86 0.20Q62.25 0.20 61.26-1.08L61.26-1.08L61.12 0L58.17 0L58.17-15L61.46-15L61.46-9.72Q62.38-10.76 63.84-10.76L63.84-10.76Q65.81-10.76 66.88-9.35Q67.96-7.93 67.96-5.36L67.96-5.36ZM64.66-5.40L64.66-5.40Q64.66-6.92 64.25-7.57Q63.85-8.22 63.01-8.22L63.01-8.22Q61.89-8.22 61.46-7.37L61.46-7.37L61.46-3.17Q61.88-2.33 63.03-2.33L63.03-2.33Q64.19-2.33 64.50-3.47L64.50-3.47Q64.66-4.02 64.66-5.40ZM71.86-10.57L73.53-4.61L75.28-10.57L78.81-10.57L74.50 1.77L74.32 2.22Q73.40 4.27 71.07 4.27L71.07 4.27Q70.43 4.27 69.72 4.07L69.72 4.07L69.72 1.72L70.15 1.72Q70.84 1.72 71.21 1.52Q71.57 1.32 71.75 0.80L71.75 0.80L72.01 0.10L68.34-10.57L71.86-10.57Z"></path></g></g></svg>